<svg width="101" height="44" viewBox="0 0 101 44" fill="none" xmlns="http://www.w3.org/2000/svg">
<path d="M6.68109 34.1283C8.62326 34.1283 10.5913 33.5327 11.8343 32.3933L10.3842 30.2699C9.5814 31.0468 8.10535 31.5129 7.04362 31.5129C4.92018 31.5129 3.65129 30.1922 3.44413 28.6126H12.7407V27.8875C12.7407 23.796 10.2029 20.9992 6.47392 20.9992C2.66725 20.9992 0 23.9255 0 27.5508C0 31.5647 2.87442 34.1283 6.68109 34.1283ZM9.55551 26.3855H3.39233C3.54771 25.1425 4.42816 23.6147 6.47392 23.6147C8.64916 23.6147 9.47782 25.1943 9.55551 26.3855Z" fill="white"/>
<path d="M21.383 33.8176L26.4067 21.31H22.859L19.5961 30.0109L16.3333 21.31H12.8115L17.8352 33.8176H21.383Z" fill="white"/>
<path d="M33.1576 34.1283C37.3009 34.1283 39.7869 31.1245 39.7869 27.5508C39.7869 24.0031 37.3009 20.9992 33.1576 20.9992C29.0402 20.9992 26.5542 24.0031 26.5542 27.5508C26.5542 31.1245 29.0402 34.1283 33.1576 34.1283ZM33.1576 31.2021C31.1118 31.2021 29.9724 29.5189 29.9724 27.5508C29.9724 25.6087 31.1118 23.9255 33.1576 23.9255C35.2034 23.9255 36.3687 25.6087 36.3687 27.5508C36.3687 29.5189 35.2034 31.2021 33.1576 31.2021Z" fill="white"/>
<path d="M44.9976 33.8176V16.5452H41.7088V33.8176H44.9976Z" fill="white"/>
<path d="M58.5392 33.8176V25.7381C58.5392 22.1386 55.9237 20.9992 53.0752 20.9992C51.1071 20.9992 49.1391 21.6207 47.6112 22.9673L48.8542 25.1684C49.9159 24.1844 51.1589 23.6924 52.5055 23.6924C54.1628 23.6924 55.2505 24.5211 55.2505 25.7899V27.4732C54.4218 26.4891 52.9457 25.9453 51.2884 25.9453C49.2944 25.9453 46.9379 27.0588 46.9379 29.985C46.9379 32.7818 49.2944 34.1283 51.2884 34.1283C52.9198 34.1283 54.3959 33.5327 55.2505 32.5228V33.8176H58.5392ZM52.6091 31.9013C51.3143 31.9013 50.2526 31.228 50.2526 30.0627C50.2526 28.8456 51.3143 28.1723 52.6091 28.1723C53.6708 28.1723 54.7066 28.5349 55.2505 29.26V30.8137C54.7066 31.5388 53.6708 31.9013 52.6091 31.9013Z" fill="white"/>
<path d="M73.0141 33.8176V24.9872C73.0141 22.553 71.6934 20.9992 68.9485 20.9992C66.9027 20.9992 65.3749 21.9833 64.5721 22.9414V21.31H61.2833V33.8176H64.5721V25.4015C65.1159 24.6505 66.1258 23.9255 67.4206 23.9255C68.819 23.9255 69.7253 24.5211 69.7253 26.2561V33.8176H73.0141Z" fill="white"/>
<path d="M75.3214 38.7119C75.7358 38.8155 76.5644 38.8932 76.9529 38.8932C79.1022 38.8414 80.7595 38.2199 81.6918 35.8634L87.5701 21.31H84.0224L80.7595 30.0109L77.4967 21.31H73.9748L79.0504 33.9989L78.5843 35.0606C78.2735 35.7339 77.7038 35.9669 76.8493 35.9669C76.5385 35.9669 76.0983 35.8893 75.8134 35.7598L75.3214 38.7119Z" fill="white"/>
<path d="M2.92812 42.5438C3.55321 42.5438 4.06753 42.3381 4.44733 41.9583L4.16248 41.5705C3.8618 41.8791 3.4187 42.0532 2.98351 42.0532C2.1606 42.0532 1.6542 41.4519 1.60672 40.7318H4.70054V40.5815C4.70054 39.4342 4.02005 38.5321 2.86482 38.5321C1.77289 38.5321 0.981628 39.4262 0.981628 40.534C0.981628 41.7288 1.79662 42.5438 2.92812 42.5438ZM4.11501 40.2966H1.60672C1.63837 39.7111 2.04191 39.0227 2.85691 39.0227C3.72729 39.0227 4.10709 39.7269 4.11501 40.2966Z" fill="white"/>
<path d="M7.48953 42.4488L9.07996 38.6271H8.43113L7.16511 41.7604L5.89119 38.6271H5.25027L6.8407 42.4488H7.48953Z" fill="white"/>
<path d="M11.5268 42.5438C12.6899 42.5438 13.4179 41.6418 13.4179 40.534C13.4179 39.4262 12.6899 38.5321 11.5268 38.5321C10.3636 38.5321 9.63569 39.4262 9.63569 40.534C9.63569 41.6418 10.3636 42.5438 11.5268 42.5438ZM11.5268 42.0136C10.7118 42.0136 10.2529 41.3173 10.2529 40.534C10.2529 39.7586 10.7118 39.0623 11.5268 39.0623C12.3418 39.0623 12.7928 39.7586 12.7928 40.534C12.7928 41.3173 12.3418 42.0136 11.5268 42.0136Z" fill="white"/>
<path d="M15.137 42.4488V37.1712H14.5436V42.4488H15.137Z" fill="white"/>
<path d="M19.652 42.4488V38.6271H19.0586V41.436C18.837 41.7446 18.3939 42.0136 17.9271 42.0136C17.4128 42.0136 17.0725 41.8158 17.0725 41.1433V38.6271H16.4791V41.3253C16.4791 42.1561 16.8984 42.5438 17.6976 42.5438C18.2673 42.5438 18.7658 42.2431 19.0586 41.9108V42.4488H19.652Z" fill="white"/>
<path d="M21.9608 42.5438C22.3089 42.5438 22.5225 42.4409 22.6729 42.2985L22.4988 41.8554C22.4197 41.9424 22.2614 42.0136 22.0953 42.0136C21.8342 42.0136 21.7076 41.8079 21.7076 41.5231V39.1493H22.483V38.6271H21.7076V37.5826H21.1141V38.6271H20.4811V39.1493H21.1141V41.6497C21.1141 42.2194 21.399 42.5438 21.9608 42.5438Z" fill="white"/>
<path d="M23.7723 38.0811C23.9938 38.0811 24.1758 37.907 24.1758 37.6855C24.1758 37.4639 23.9938 37.2819 23.7723 37.2819C23.5587 37.2819 23.3767 37.4639 23.3767 37.6855C23.3767 37.907 23.5587 38.0811 23.7723 38.0811ZM24.073 42.4488V38.6271H23.4795V42.4488H24.073Z" fill="white"/>
<path d="M27.0846 42.5438C28.2477 42.5438 28.9757 41.6418 28.9757 40.534C28.9757 39.4262 28.2477 38.5321 27.0846 38.5321C25.9214 38.5321 25.1935 39.4262 25.1935 40.534C25.1935 41.6418 25.9214 42.5438 27.0846 42.5438ZM27.0846 42.0136C26.2696 42.0136 25.8106 41.3173 25.8106 40.534C25.8106 39.7586 26.2696 39.0623 27.0846 39.0623C27.8996 39.0623 28.3506 39.7586 28.3506 40.534C28.3506 41.3173 27.8996 42.0136 27.0846 42.0136Z" fill="white"/>
<path d="M33.2743 42.4488V39.7665C33.2743 38.9357 32.8549 38.5321 32.0558 38.5321C31.4861 38.5321 30.9638 38.8644 30.6948 39.181V38.6271H30.1014V42.4488H30.6948V39.6557C30.9164 39.3471 31.3595 39.0623 31.8263 39.0623C32.3406 39.0623 32.6809 39.2759 32.6809 39.9485V42.4488H33.2743Z" fill="white"/>
<path d="M39.799 42.4488V39.8219C39.799 38.8961 39.1264 38.5321 38.3193 38.5321C37.6942 38.5321 37.2036 38.7378 36.7922 39.1651L37.0691 39.5766C37.4094 39.2126 37.7813 39.0464 38.2402 39.0464C38.7941 39.0464 39.2055 39.3392 39.2055 39.8535V40.5419C38.8969 40.1858 38.4617 40.0197 37.9395 40.0197C37.2907 40.0197 36.6023 40.4232 36.6023 41.2778C36.6023 42.1086 37.2907 42.5438 37.9395 42.5438C38.4538 42.5438 38.889 42.3618 39.2055 42.0136V42.4488H39.799ZM38.1531 42.1165C37.5993 42.1165 37.2115 41.7684 37.2115 41.2857C37.2115 40.7951 37.5993 40.447 38.1531 40.447C38.5725 40.447 38.9761 40.6052 39.2055 40.9217V41.6418C38.9761 41.9583 38.5725 42.1165 38.1531 42.1165Z" fill="white"/>
<path d="M44.3198 42.4488V39.7665C44.3198 38.9357 43.9004 38.5321 43.1012 38.5321C42.5315 38.5321 42.0093 38.8644 41.7403 39.181V38.6271H41.1468V42.4488H41.7403V39.6557C41.9618 39.3471 42.4049 39.0623 42.8717 39.0623C43.3861 39.0623 43.7263 39.2759 43.7263 39.9485V42.4488H44.3198Z" fill="white"/>
<path d="M45.4495 43.9443C45.5603 43.976 45.7581 43.9997 45.8847 43.9997C46.3911 43.9918 46.7788 43.7782 47.0083 43.2243L48.9231 38.6271H48.2743L47.0083 41.7604L45.7344 38.6271H45.0935L46.6918 42.4884L46.4386 43.066C46.3041 43.3825 46.13 43.4696 45.8689 43.4696C45.7739 43.4696 45.6315 43.4458 45.5445 43.4063L45.4495 43.9443Z" fill="white"/>
<path d="M50.6658 42.5438C51.0139 42.5438 51.2275 42.4409 51.3779 42.2985L51.2038 41.8554C51.1247 41.9424 50.9664 42.0136 50.8003 42.0136C50.5392 42.0136 50.4126 41.8079 50.4126 41.5231V39.1493H51.188V38.6271H50.4126V37.5826H49.8191V38.6271H49.1861V39.1493H49.8191V41.6497C49.8191 42.2194 50.104 42.5438 50.6658 42.5438Z" fill="white"/>
<path d="M52.4773 38.0811C52.6989 38.0811 52.8808 37.907 52.8808 37.6855C52.8808 37.4639 52.6989 37.2819 52.4773 37.2819C52.2637 37.2819 52.0817 37.4639 52.0817 37.6855C52.0817 37.907 52.2637 38.0811 52.4773 38.0811ZM52.778 42.4488V38.6271H52.1845V42.4488H52.778Z" fill="white"/>
<path d="M59.3265 42.4488V39.6874C59.3265 38.9198 58.9546 38.5321 58.2583 38.5321C57.7044 38.5321 57.1901 38.8961 56.9765 39.2443C56.8657 38.8486 56.5334 38.5321 55.9478 38.5321C55.386 38.5321 54.8717 38.9357 54.7135 39.181V38.6271H54.12V42.4488H54.7135V39.6557C54.9192 39.3471 55.3306 39.0623 55.7184 39.0623C56.2169 39.0623 56.4226 39.3709 56.4226 39.8535V42.4488H57.016V39.6478C57.2138 39.3471 57.6332 39.0623 58.0288 39.0623C58.5194 39.0623 58.7331 39.3709 58.7331 39.8535V42.4488H59.3265Z" fill="white"/>
<path d="M62.3935 42.5438C63.0186 42.5438 63.5329 42.3381 63.9128 41.9583L63.6279 41.5705C63.3272 41.8791 62.8841 42.0532 62.4489 42.0532C61.626 42.0532 61.1196 41.4519 61.0721 40.7318H64.166V40.5815C64.166 39.4342 63.4855 38.5321 62.3302 38.5321C61.2383 38.5321 60.447 39.4262 60.447 40.534C60.447 41.7288 61.262 42.5438 62.3935 42.5438ZM63.5804 40.2966H61.0721C61.1038 39.7111 61.5073 39.0227 62.3223 39.0227C63.1927 39.0227 63.5725 39.7269 63.5804 40.2966Z" fill="white"/>
<path d="M65.5478 42.528C65.7852 42.528 65.983 42.3302 65.983 42.0928C65.983 41.8554 65.7852 41.6576 65.5478 41.6576C65.3104 41.6576 65.1126 41.8554 65.1126 42.0928C65.1126 42.3302 65.3104 42.528 65.5478 42.528Z" fill="white"/>
<path fill-rule="evenodd" clip-rule="evenodd" d="M91.0233 20.8205C87.5669 17.7816 85.0814 13.591 84.22 8.70612C83.8224 6.45109 83.8006 4.2167 84.1097 2.06729C89.289 1.84641 93.9578 5.49026 94.8826 10.7348C95.5788 14.6835 93.9703 18.5054 91.0233 20.8205Z" fill="url(#paint0_linear)"/>
<path fill-rule="evenodd" clip-rule="evenodd" d="M99.6236 25.389C95.2035 24.239 91.2712 21.6682 88.4434 18.1081C89.3415 17.3722 90.4353 16.8499 91.6601 16.6339C95.4667 15.9627 99.0967 18.5045 99.768 22.3111C99.9548 23.3707 99.8927 24.4167 99.6236 25.389Z" fill="url(#paint1_linear)"/>
<path fill-rule="evenodd" clip-rule="evenodd" d="M94.2114 16.6544C93.5191 18.284 92.4223 19.7219 91.0241 20.8205C90.0884 19.9978 89.2238 19.0906 88.4434 18.1081C89.3415 17.3722 90.4353 16.8499 91.6601 16.6339C92.5309 16.4804 93.3924 16.495 94.2114 16.6544Z" fill="#E03D01"/>
<defs>
<linearGradient id="paint0_linear" x1="89.915" y1="11.1498" x2="92.2528" y2="2.69771" gradientUnits="userSpaceOnUse">
<stop stop-color="#FF5600"/>
<stop offset="1" stop-color="#FF5600" stop-opacity="0.5"/>
</linearGradient>
<linearGradient id="paint1_linear" x1="93.6929" y1="20.8612" x2="100.347" y2="22.4797" gradientUnits="userSpaceOnUse">
<stop stop-color="#2DC5E7"/>
<stop offset="1" stop-color="#2DC5E7" stop-opacity="0.5"/>
</linearGradient>
</defs>
</svg>
