<svg width="101" height="44" viewBox="0 0 101 44" fill="none" xmlns="http://www.w3.org/2000/svg">
<path d="M6.68109 34.1281C8.62326 34.1281 10.5913 33.5325 11.8343 32.3931L10.3842 30.2696C9.5814 31.0465 8.10535 31.5126 7.04362 31.5126C4.92018 31.5126 3.65129 30.1919 3.44413 28.6123H12.7407V27.8872C12.7407 23.7957 10.2029 20.999 6.47392 20.999C2.66725 20.999 0 23.9252 0 27.5506C0 31.5644 2.87442 34.1281 6.68109 34.1281ZM9.55551 26.3853H3.39233C3.54771 25.1423 4.42816 23.6144 6.47392 23.6144C8.64916 23.6144 9.47782 25.1941 9.55551 26.3853Z" fill="#2C3045"/>
<path d="M21.383 33.8173L26.4067 21.3097H22.859L19.5961 30.0107L16.3333 21.3097H12.8115L17.8352 33.8173H21.383Z" fill="#2C3045"/>
<path d="M33.1576 34.1281C37.3009 34.1281 39.7869 31.1242 39.7869 27.5506C39.7869 24.0029 37.3009 20.999 33.1576 20.999C29.0402 20.999 26.5542 24.0029 26.5542 27.5506C26.5542 31.1242 29.0402 34.1281 33.1576 34.1281ZM33.1576 31.2019C31.1118 31.2019 29.9724 29.5187 29.9724 27.5506C29.9724 25.6084 31.1118 23.9252 33.1576 23.9252C35.2034 23.9252 36.3687 25.6084 36.3687 27.5506C36.3687 29.5187 35.2034 31.2019 33.1576 31.2019Z" fill="#2C3045"/>
<path d="M44.9976 33.8173V16.5449H41.7088V33.8173H44.9976Z" fill="#2C3045"/>
<path d="M58.5392 33.8173V25.7379C58.5392 22.1384 55.9237 20.999 53.0752 20.999C51.1071 20.999 49.1391 21.6205 47.6112 22.9671L48.8542 25.1682C49.9159 24.1841 51.1589 23.6921 52.5055 23.6921C54.1628 23.6921 55.2505 24.5208 55.2505 25.7897V27.4729C54.4218 26.4889 52.9457 25.9451 51.2884 25.9451C49.2944 25.9451 46.9379 27.0586 46.9379 29.9848C46.9379 32.7815 49.2944 34.1281 51.2884 34.1281C52.9198 34.1281 54.3959 33.5325 55.2505 32.5226V33.8173H58.5392ZM52.6091 31.9011C51.3143 31.9011 50.2526 31.2278 50.2526 30.0625C50.2526 28.8454 51.3143 28.1721 52.6091 28.1721C53.6708 28.1721 54.7066 28.5346 55.2505 29.2597V30.8134C54.7066 31.5385 53.6708 31.9011 52.6091 31.9011Z" fill="#2C3045"/>
<path d="M73.0141 33.8173V24.9869C73.0141 22.5527 71.6934 20.999 68.9485 20.999C66.9027 20.999 65.3749 21.983 64.5721 22.9412V21.3097H61.2833V33.8173H64.5721V25.4012C65.1159 24.6503 66.1258 23.9252 67.4206 23.9252C68.819 23.9252 69.7253 24.5208 69.7253 26.2558V33.8173H73.0141Z" fill="#2C3045"/>
<path d="M75.3214 38.7116C75.7358 38.8152 76.5644 38.8929 76.9529 38.8929C79.1022 38.8411 80.7595 38.2196 81.6918 35.8631L87.5701 21.3097H84.0224L80.7595 30.0107L77.4967 21.3097H73.9748L79.0504 33.9986L78.5843 35.0603C78.2735 35.7336 77.7038 35.9667 76.8493 35.9667C76.5385 35.9667 76.0983 35.889 75.8134 35.7595L75.3214 38.7116Z" fill="#2C3045"/>
<path d="M2.92794 42.5435C3.55303 42.5435 4.06735 42.3378 4.44715 41.958L4.1623 41.5703C3.86162 41.8789 3.41852 42.053 2.98333 42.053C2.16042 42.053 1.65401 41.4516 1.60654 40.7316H4.70035V40.5812C4.70035 39.4339 4.01987 38.5319 2.86464 38.5319C1.7727 38.5319 0.981445 39.426 0.981445 40.5337C0.981445 41.7285 1.79644 42.5435 2.92794 42.5435ZM4.11482 40.2964H1.60654C1.63819 39.7108 2.04173 39.0224 2.85672 39.0224C3.72711 39.0224 4.10691 39.7267 4.11482 40.2964Z" fill="#2C3045"/>
<path d="M7.48935 42.4486L9.07977 38.6268H8.43094L7.16493 41.7602L5.89101 38.6268H5.25009L6.84052 42.4486H7.48935Z" fill="#2C3045"/>
<path d="M11.5266 42.5435C12.6898 42.5435 13.4177 41.6415 13.4177 40.5337C13.4177 39.426 12.6898 38.5319 11.5266 38.5319C10.3635 38.5319 9.63551 39.426 9.63551 40.5337C9.63551 41.6415 10.3635 42.5435 11.5266 42.5435ZM11.5266 42.0134C10.7116 42.0134 10.2527 41.3171 10.2527 40.5337C10.2527 39.7583 10.7116 39.062 11.5266 39.062C12.3416 39.062 12.7926 39.7583 12.7926 40.5337C12.7926 41.3171 12.3416 42.0134 11.5266 42.0134Z" fill="#2C3045"/>
<path d="M15.1368 42.4486V37.1709H14.5434V42.4486H15.1368Z" fill="#2C3045"/>
<path d="M19.6518 42.4486V38.6268H19.0584V41.4358C18.8368 41.7444 18.3937 42.0134 17.9269 42.0134C17.4126 42.0134 17.0723 41.8156 17.0723 41.143V38.6268H16.4789V41.325C16.4789 42.1558 16.8983 42.5435 17.6974 42.5435C18.2671 42.5435 18.7656 42.2429 19.0584 41.9105V42.4486H19.6518Z" fill="#2C3045"/>
<path d="M21.9606 42.5435C22.3087 42.5435 22.5224 42.4407 22.6727 42.2982L22.4986 41.8551C22.4195 41.9422 22.2612 42.0134 22.0951 42.0134C21.834 42.0134 21.7074 41.8077 21.7074 41.5228V39.149H22.4828V38.6268H21.7074V37.5824H21.1139V38.6268H20.4809V39.149H21.1139V41.6494C21.1139 42.2191 21.3988 42.5435 21.9606 42.5435Z" fill="#2C3045"/>
<path d="M23.7721 38.0808C23.9937 38.0808 24.1757 37.9068 24.1757 37.6852C24.1757 37.4637 23.9937 37.2817 23.7721 37.2817C23.5585 37.2817 23.3765 37.4637 23.3765 37.6852C23.3765 37.9068 23.5585 38.0808 23.7721 38.0808ZM24.0728 42.4486V38.6268H23.4793V42.4486H24.0728Z" fill="#2C3045"/>
<path d="M27.0844 42.5435C28.2475 42.5435 28.9755 41.6415 28.9755 40.5337C28.9755 39.426 28.2475 38.5319 27.0844 38.5319C25.9212 38.5319 25.1933 39.426 25.1933 40.5337C25.1933 41.6415 25.9212 42.5435 27.0844 42.5435ZM27.0844 42.0134C26.2694 42.0134 25.8105 41.3171 25.8105 40.5337C25.8105 39.7583 26.2694 39.062 27.0844 39.062C27.8994 39.062 28.3504 39.7583 28.3504 40.5337C28.3504 41.3171 27.8994 42.0134 27.0844 42.0134Z" fill="#2C3045"/>
<path d="M33.2741 42.4486V39.7662C33.2741 38.9354 32.8548 38.5319 32.0556 38.5319C31.4859 38.5319 30.9636 38.8642 30.6946 39.1807V38.6268H30.1012V42.4486H30.6946V39.6554C30.9162 39.3469 31.3593 39.062 31.8261 39.062C32.3404 39.062 32.6807 39.2756 32.6807 39.9482V42.4486H33.2741Z" fill="#2C3045"/>
<path d="M39.7988 42.4486V39.8216C39.7988 38.8958 39.1262 38.5319 38.3191 38.5319C37.694 38.5319 37.2035 38.7376 36.792 39.1649L37.0689 39.5763C37.4092 39.2123 37.7811 39.0462 38.24 39.0462C38.7939 39.0462 39.2053 39.3389 39.2053 39.8533V40.5417C38.8967 40.1856 38.4616 40.0194 37.9393 40.0194C37.2905 40.0194 36.6021 40.423 36.6021 41.2775C36.6021 42.1083 37.2905 42.5435 37.9393 42.5435C38.4536 42.5435 38.8888 42.3615 39.2053 42.0134V42.4486H39.7988ZM38.153 42.1163C37.5991 42.1163 37.2114 41.7681 37.2114 41.2854C37.2114 40.7949 37.5991 40.4467 38.153 40.4467C38.5723 40.4467 38.9759 40.605 39.2053 40.9215V41.6415C38.9759 41.958 38.5723 42.1163 38.153 42.1163Z" fill="#2C3045"/>
<path d="M44.3196 42.4486V39.7662C44.3196 38.9354 43.9002 38.5319 43.101 38.5319C42.5313 38.5319 42.0091 38.8642 41.7401 39.1807V38.6268H41.1466V42.4486H41.7401V39.6554C41.9616 39.3469 42.4047 39.062 42.8716 39.062C43.3859 39.062 43.7261 39.2756 43.7261 39.9482V42.4486H44.3196Z" fill="#2C3045"/>
<path d="M45.4493 43.9441C45.5601 43.9757 45.7579 43.9994 45.8845 43.9994C46.3909 43.9915 46.7786 43.7779 47.0081 43.224L48.923 38.6268H48.2741L47.0081 41.7602L45.7342 38.6268H45.0933L46.6916 42.4881L46.4384 43.0658C46.3039 43.3823 46.1298 43.4693 45.8687 43.4693C45.7738 43.4693 45.6313 43.4456 45.5443 43.406L45.4493 43.9441Z" fill="#2C3045"/>
<path d="M50.6656 42.5435C51.0137 42.5435 51.2274 42.4407 51.3777 42.2982L51.2036 41.8551C51.1245 41.9422 50.9663 42.0134 50.8001 42.0134C50.539 42.0134 50.4124 41.8077 50.4124 41.5228V39.149H51.1878V38.6268H50.4124V37.5824H49.8189V38.6268H49.1859V39.149H49.8189V41.6494C49.8189 42.2191 50.1038 42.5435 50.6656 42.5435Z" fill="#2C3045"/>
<path d="M52.4771 38.0808C52.6987 38.0808 52.8807 37.9068 52.8807 37.6852C52.8807 37.4637 52.6987 37.2817 52.4771 37.2817C52.2635 37.2817 52.0815 37.4637 52.0815 37.6852C52.0815 37.9068 52.2635 38.0808 52.4771 38.0808ZM52.7778 42.4486V38.6268H52.1844V42.4486H52.7778Z" fill="#2C3045"/>
<path d="M59.3263 42.4486V39.6871C59.3263 38.9196 58.9544 38.5319 58.2581 38.5319C57.7042 38.5319 57.1899 38.8958 56.9763 39.244C56.8655 38.8484 56.5332 38.5319 55.9476 38.5319C55.3859 38.5319 54.8715 38.9354 54.7133 39.1807V38.6268H54.1198V42.4486H54.7133V39.6554C54.919 39.3469 55.3305 39.062 55.7182 39.062C56.2167 39.062 56.4224 39.3706 56.4224 39.8533V42.4486H57.0158V39.6475C57.2137 39.3469 57.633 39.062 58.0287 39.062C58.5192 39.062 58.7329 39.3706 58.7329 39.8533V42.4486H59.3263Z" fill="#2C3045"/>
<path d="M62.3934 42.5435C63.0184 42.5435 63.5328 42.3378 63.9126 41.958L63.6277 41.5703C63.327 41.8789 62.8839 42.053 62.4487 42.053C61.6258 42.053 61.1194 41.4516 61.072 40.7316H64.1658V40.5812C64.1658 39.4339 63.4853 38.5319 62.3301 38.5319C61.2381 38.5319 60.4469 39.426 60.4469 40.5337C60.4469 41.7285 61.2619 42.5435 62.3934 42.5435ZM63.5802 40.2964H61.072C61.1036 39.7108 61.5071 39.0224 62.3221 39.0224C63.1925 39.0224 63.5723 39.7267 63.5802 40.2964Z" fill="#2C3045"/>
<path d="M65.5476 42.5277C65.785 42.5277 65.9828 42.3299 65.9828 42.0925C65.9828 41.8551 65.785 41.6573 65.5476 41.6573C65.3102 41.6573 65.1124 41.8551 65.1124 42.0925C65.1124 42.3299 65.3102 42.5277 65.5476 42.5277Z" fill="#2C3045"/>
<path fill-rule="evenodd" clip-rule="evenodd" d="M91.0229 20.8209C87.5665 17.7821 85.081 13.5914 84.2197 8.70654C83.8221 6.4515 83.8003 4.21711 84.1094 2.06771C89.2887 1.84683 93.9575 5.49067 94.8822 10.7352C95.5785 14.6839 93.9699 18.5058 91.0229 20.8209Z" fill="url(#paint0_linear)"/>
<path fill-rule="evenodd" clip-rule="evenodd" d="M99.6234 25.389C95.2032 24.239 91.271 21.6682 88.4432 18.1082C89.3412 17.3722 90.4351 16.8499 91.6599 16.634C95.4665 15.9628 99.0965 18.5045 99.7677 22.3111C99.9545 23.3708 99.8924 24.4168 99.6234 25.389Z" fill="url(#paint1_linear)"/>
<path fill-rule="evenodd" clip-rule="evenodd" d="M94.2111 16.6544C93.5188 18.2841 92.422 19.7219 91.0238 20.8205C90.0881 19.9978 89.2236 19.0907 88.4432 18.1082C89.3412 17.3722 90.4351 16.8499 91.6599 16.634C92.5306 16.4804 93.3921 16.495 94.2111 16.6544Z" fill="#E03D01"/>
<defs>
<linearGradient id="paint0_linear" x1="89.9146" y1="11.1502" x2="92.2524" y2="2.69812" gradientUnits="userSpaceOnUse">
<stop stop-color="#FF5600"/>
<stop offset="1" stop-color="#FF5600" stop-opacity="0.5"/>
</linearGradient>
<linearGradient id="paint1_linear" x1="93.6927" y1="20.8613" x2="100.346" y2="22.4798" gradientUnits="userSpaceOnUse">
<stop stop-color="#2DC5E7"/>
<stop offset="1" stop-color="#2DC5E7" stop-opacity="0.5"/>
</linearGradient>
</defs>
</svg>
